<svg width="47" height="44" viewBox="0 0 47 44" fill="none" xmlns="http://www.w3.org/2000/svg">
<path d="M26.67 33.51V34.15H19.45V33.51H22.68V32.65H23.5V33.51H26.67ZM20.83 39.69V41H25.35V39.69H20.83ZM20.03 41.62V39.07H26.15V41.62H20.03ZM21.05 35.77C21.05 36.22 21.78 36.47 23.09 36.47C24.38 36.47 25.11 36.22 25.11 35.77C25.11 35.33 24.38 35.08 23.09 35.08C21.78 35.08 21.05 35.33 21.05 35.77ZM23.5 37.72H27.13V38.37H19.03V37.72H22.68V37.04C21.08 36.98 20.19 36.54 20.19 35.77C20.19 34.94 21.23 34.5 23.09 34.5C24.93 34.5 25.98 34.94 25.98 35.77C25.98 36.54 25.08 36.98 23.5 37.04V37.72Z" fill="#3C3C3C"/>
<g clip-path="url(#clip0_6_2010)">
<path d="M14.5 25.25V11.75L23.5 5L32.5 11.75V25.25H25.75V17.375H21.25V25.25H14.5Z" fill="#3C3C3C"/>
</g>
<defs>
<clipPath id="clip0_6_2010">
<rect width="30" height="30" fill="white" transform="translate(8.5)"/>
</clipPath>
</defs>
</svg>
