<svg width="393" height="852" viewBox="0 0 393 852" fill="none" xmlns="http://www.w3.org/2000/svg">
<g clip-path="url(#clip0_6_1391)">
<rect width="393" height="852" rx="15" fill="#20CE77"/>
<path d="M35.8599 20.7065C36.5516 20.7065 37.1963 20.8338 37.7939 21.0884C38.3971 21.3374 38.9229 21.7165 39.3711 22.2256C39.8249 22.7292 40.1763 23.3711 40.4253 24.1514C40.6799 24.9261 40.8071 25.8392 40.8071 26.8906V26.9072C40.8071 28.2464 40.6051 29.3919 40.2012 30.3438C39.8027 31.2956 39.2327 32.026 38.4912 32.5352C37.7497 33.0443 36.867 33.2988 35.8433 33.2988C35.0741 33.2988 34.3796 33.1605 33.7598 32.8838C33.14 32.6016 32.6281 32.217 32.2241 31.73C31.8257 31.2375 31.5628 30.6785 31.4355 30.0532L31.4189 29.9785H33.876L33.9009 30.0532C34.0005 30.2967 34.1388 30.5153 34.3159 30.709C34.4985 30.8971 34.7171 31.0438 34.9717 31.1489C35.2262 31.2541 35.514 31.3066 35.835 31.3066C36.416 31.3066 36.8919 31.1351 37.2627 30.792C37.6335 30.4434 37.9129 29.9757 38.1011 29.3892C38.2892 28.8026 38.3971 28.1468 38.4248 27.4219C38.4303 27.3389 38.4331 27.2559 38.4331 27.1729C38.4331 27.0898 38.4331 27.0096 38.4331 26.9321L38.0513 24.9233C38.0513 24.5028 37.9544 24.1265 37.7607 23.7944C37.5671 23.4569 37.307 23.1912 36.9805 22.9976C36.654 22.7983 36.286 22.6987 35.8765 22.6987C35.4725 22.6987 35.1045 22.7956 34.7725 22.9893C34.446 23.1774 34.1831 23.4375 33.9839 23.7695C33.7902 24.096 33.6934 24.464 33.6934 24.8735V24.8901C33.6934 25.3107 33.7874 25.6842 33.9756 26.0107C34.1637 26.3372 34.4211 26.5946 34.7476 26.7827C35.0741 26.9653 35.4448 27.0566 35.8599 27.0566C36.2749 27.0566 36.6457 26.9681 36.9722 26.791C37.3042 26.6084 37.5671 26.3566 37.7607 26.0356C37.9544 25.7147 38.0513 25.3494 38.0513 24.9399V24.9233H38.5493V27.1562H38.2588C38.1204 27.4606 37.9129 27.7484 37.6362 28.0195C37.3651 28.2852 37.0247 28.501 36.6152 28.667C36.2057 28.8275 35.7243 28.9077 35.1709 28.9077C34.3962 28.9077 33.7155 28.7389 33.1289 28.4014C32.5423 28.0583 32.0858 27.5907 31.7593 26.9985C31.4328 26.4064 31.2695 25.734 31.2695 24.9814V24.9648C31.2695 24.1458 31.4632 23.4154 31.8506 22.7734C32.2435 22.1315 32.7858 21.6279 33.4775 21.2627C34.1693 20.8919 34.9634 20.7065 35.8599 20.7065ZM44.6587 31.4478C44.2381 31.4478 43.8895 31.3094 43.6128 31.0327C43.3361 30.756 43.1978 30.4129 43.1978 30.0034C43.1978 29.5939 43.3361 29.2536 43.6128 28.9824C43.8895 28.7057 44.2381 28.5674 44.6587 28.5674C45.0903 28.5674 45.4417 28.7057 45.7129 28.9824C45.984 29.2536 46.1196 29.5939 46.1196 30.0034C46.1196 30.4129 45.984 30.756 45.7129 31.0327C45.4417 31.3094 45.0903 31.4478 44.6587 31.4478ZM44.6587 25.438C44.2381 25.438 43.8895 25.2996 43.6128 25.0229C43.3361 24.7463 43.1978 24.4032 43.1978 23.9937C43.1978 23.5841 43.3361 23.2438 43.6128 22.9727C43.8895 22.696 44.2381 22.5576 44.6587 22.5576C45.0903 22.5576 45.4417 22.696 45.7129 22.9727C45.984 23.2438 46.1196 23.5841 46.1196 23.9937C46.1196 24.4032 45.984 24.7463 45.7129 25.0229C45.4417 25.2996 45.0903 25.438 44.6587 25.438ZM54.3789 33V30.8003H48.5103V28.833C48.8146 28.2907 49.1217 27.7539 49.4316 27.2227C49.7415 26.6859 50.0542 26.1546 50.3696 25.6289C50.6906 25.0977 51.0088 24.5747 51.3242 24.0601C51.6452 23.5399 51.9661 23.028 52.2871 22.5244C52.6081 22.0153 52.929 21.5145 53.25 21.022H56.7695V28.7915H58.3301V30.8003H56.7695V33H54.3789ZM50.7681 28.8579H54.4287V22.9229H54.2959C54.0635 23.2826 53.8255 23.6506 53.582 24.0269C53.3441 24.4032 53.1034 24.7878 52.8599 25.1807C52.6219 25.5736 52.3812 25.9692 52.1377 26.3677C51.8997 26.7606 51.6646 27.1562 51.4321 27.5547C51.2052 27.9476 50.9839 28.3377 50.7681 28.7251V28.8579ZM63.2275 33V23.3877H63.0781L60.1396 25.4297V23.1719L63.2358 21.022H65.7344V33H63.2275Z" fill="#3C3C3C"/>
<path d="M356.12 24C356.29 24 356.433 24.0575 356.548 24.1725C356.663 24.2875 356.72 24.43 356.72 24.6L356.72 26.4L357.4 26.4C357.57 26.4 357.713 26.4575 357.828 26.5725C357.943 26.6875 358 26.83 358 27L358 29C358 29.17 357.943 29.3125 357.828 29.4275C357.713 29.5425 357.57 29.6 357.4 29.6L356.72 29.6L356.72 31.4C356.72 31.57 356.662 31.7125 356.548 31.8275C356.433 31.9425 356.29 32 356.12 32L342.6 32C342.43 32 342.287 31.9425 342.172 31.8275C342.057 31.7125 342 31.57 342 31.4L342 24.6C342 24.43 342.057 24.2875 342.172 24.1725C342.287 24.0575 342.43 24 342.6 24L356.12 24ZM355.52 25.2L349.36 25.2L349.36 30.8L355.52 30.8L355.52 25.2Z" fill="#3C3C3C"/>
<path d="M320.355 27.1707C321.106 26.6327 321.906 26.2156 322.755 25.9192C323.603 25.6228 324.518 25.4746 325.5 25.4746C326.482 25.4746 327.4 25.6228 328.254 25.9192C329.109 26.2156 329.912 26.6327 330.663 27.1707L332.627 25.3922C331.572 24.6457 330.454 24.0584 329.273 23.6302C328.091 23.2021 326.833 22.988 325.5 22.988C324.167 22.988 322.909 23.2021 321.727 23.6302C320.546 24.0584 319.428 24.6457 318.373 25.3922L320.355 27.1707ZM325.5 33C325.427 33 325.361 32.989 325.3 32.9671C325.239 32.9451 325.179 32.9067 325.118 32.8518L317.155 25.6392C317.046 25.5404 316.994 25.4251 317 25.2934C317.007 25.1617 317.064 25.0519 317.173 24.9641C318.325 24.0419 319.606 23.3174 321.018 22.7904C322.43 22.2635 323.924 22 325.5 22C327.076 22 328.57 22.2635 329.982 22.7904C331.394 23.3174 332.675 24.0419 333.827 24.9641C333.936 25.0519 333.993 25.1617 334 25.2934C334.006 25.4251 333.954 25.5404 333.845 25.6392L325.882 32.8518C325.821 32.9067 325.761 32.9451 325.7 32.9671C325.639 32.989 325.573 33 325.5 33Z" fill="#3C3C3C"/>
<path fill-rule="evenodd" clip-rule="evenodd" d="M306.4 22C305.737 22 305.2 22.5373 305.2 23.2V31.8C305.2 32.4627 305.737 33 306.4 33C307.063 33 307.6 32.4627 307.6 31.8V23.2C307.6 22.5373 307.063 22 306.4 22ZM300.8 25.95C300.8 25.2873 301.337 24.75 302 24.75C302.663 24.75 303.2 25.2873 303.2 25.95V31.8C303.2 32.4627 302.663 33 302 33C301.337 33 300.8 32.4627 300.8 31.8V25.95ZM297.6 27.5C296.937 27.5 296.4 28.0373 296.4 28.7V31.8C296.4 32.4627 296.937 33 297.6 33C298.263 33 298.8 32.4627 298.8 31.8V28.7C298.8 28.0373 298.263 27.5 297.6 27.5ZM293.2 30C292.537 30 292 30.5373 292 31.2V31.8C292 32.4627 292.537 33 293.2 33C293.863 33 294.4 32.4627 294.4 31.8V31.2C294.4 30.5373 293.863 30 293.2 30Z" fill="#3C3C3C"/>
<g filter="url(#filter0_d_6_1391)">
<path d="M222 478.5C222 478.224 210.136 478 195.5 478C180.864 478 169 478.224 169 478.5C169 478.776 180.864 479 195.5 479C210.136 479 222 478.776 222 478.5Z" fill="black" fill-opacity="0.01" shape-rendering="crispEdges"/>
</g>
<rect x="146" y="373" width="100" height="100" rx="30" fill="#24DB80"/>
<path fill-rule="evenodd" clip-rule="evenodd" d="M176 406V443L184 435H213C213.8 435 214.5 434.7 215.1 434.1C215.7 433.5 216 432.8 216 432V406C216 405.2 215.7 404.5 215.1 403.9C214.5 403.3 213.8 403 213 403H179C178.2 403 177.5 403.3 176.9 403.9C176.3 404.5 176 405.2 176 406ZM189 410H192V422H202V425H192H189V422V410Z" fill="white"/>
<path d="M127 841.5C127 840.119 128.119 839 129.5 839H263.5C264.881 839 266 840.119 266 841.5C266 842.881 264.881 844 263.5 844H129.5C128.119 844 127 842.881 127 841.5Z" fill="#3C3C3C"/>
<path d="M127 841.5C127 840.119 128.119 839 129.5 839H263.5C264.881 839 266 840.119 266 841.5C266 842.881 264.881 844 263.5 844H129.5C128.119 844 127 842.881 127 841.5Z" fill="#3C3C3C"/>
</g>
<defs>
<filter id="filter0_d_6_1391" x="159" y="472" width="73" height="21" filterUnits="userSpaceOnUse" color-interpolation-filters="sRGB">
<feFlood flood-opacity="0" result="BackgroundImageFix"/>
<feColorMatrix in="SourceAlpha" type="matrix" values="0 0 0 0 0 0 0 0 0 0 0 0 0 0 0 0 0 0 127 0" result="hardAlpha"/>
<feOffset dy="4"/>
<feGaussianBlur stdDeviation="5"/>
<feComposite in2="hardAlpha" operator="out"/>
<feColorMatrix type="matrix" values="0 0 0 0 0 0 0 0 0 0 0 0 0 0 0 0 0 0 0.8 0"/>
<feBlend mode="normal" in2="BackgroundImageFix" result="effect1_dropShadow_6_1391"/>
<feBlend mode="normal" in="SourceGraphic" in2="effect1_dropShadow_6_1391" result="shape"/>
</filter>
<clipPath id="clip0_6_1391">
<rect width="393" height="852" rx="15" fill="white"/>
</clipPath>
</defs>
</svg>
