<svg width="26" height="26" viewBox="0 0 26 26" fill="none" xmlns="http://www.w3.org/2000/svg">
<path d="M12.9863 18.7688C14.2953 18.7688 15.3922 18.3264 16.2769 17.4417C17.1616 16.5569 17.604 15.4601 17.604 14.151C17.604 12.842 17.1616 11.7497 16.2769 10.874C15.3922 9.99826 14.2953 9.56042 12.9863 9.56042C11.6773 9.56042 10.5849 9.99826 9.70921 10.874C8.83352 11.7497 8.39567 12.842 8.39567 14.151C8.39567 15.4601 8.83352 16.5569 9.70921 17.4417C10.5849 18.3264 11.6773 18.7688 12.9863 18.7688ZM12.9863 17.1438C12.1287 17.1438 11.42 16.8594 10.8603 16.2906C10.3005 15.7219 10.0207 15.0087 10.0207 14.151C10.0207 13.2934 10.3005 12.5847 10.8603 12.025C11.42 11.4653 12.1287 11.1854 12.9863 11.1854C13.8439 11.1854 14.5571 11.4653 15.1259 12.025C15.6946 12.5847 15.979 13.2934 15.979 14.151C15.979 15.0087 15.6946 15.7219 15.1259 16.2906C14.5571 16.8594 13.8439 17.1438 12.9863 17.1438ZM3.7915 22.75C3.35817 22.75 2.979 22.5875 2.654 22.2625C2.329 21.9375 2.1665 21.5583 2.1665 21.125V7.23125C2.1665 6.81597 2.329 6.44132 2.654 6.10729C2.979 5.77326 3.35817 5.60625 3.7915 5.60625H7.77275L9.74984 3.25H16.2498L18.2269 5.60625H22.2082C22.6234 5.60625 22.9981 5.77326 23.3321 6.10729C23.6662 6.44132 23.8332 6.81597 23.8332 7.23125V21.125C23.8332 21.5583 23.6662 21.9375 23.3321 22.2625C22.9981 22.5875 22.6234 22.75 22.2082 22.75H3.7915ZM3.7915 21.125H22.2082V7.23125H17.4686L15.4915 4.875H10.5082L8.53109 7.23125H3.7915V21.125Z" fill="#3C3C3C"/>
</svg>
