<svg width="47" height="44" viewBox="0 0 47 44" fill="none" xmlns="http://www.w3.org/2000/svg">
<path d="M16.66 35.03V39.35C17.86 39.34 18.71 39.29 19.69 39.08L19.76 39.76C18.69 39.99 17.78 40.03 16.44 40.03H15.85V34.36H19.19V35.03H16.66ZM22.36 33.27H23.15V42.24H22.36V37.54H21.09V41.79H20.32V33.47H21.09V36.87H22.36V33.27ZM30.1392 34.36V35.01H24.7792V34.36H27.0592V33.28H27.8792V34.36H30.1392ZM26.1292 37.2C26.1292 37.82 26.6692 38.22 27.4692 38.22C28.2692 38.22 28.8092 37.82 28.8092 37.2C28.8092 36.58 28.2692 36.17 27.4692 36.17C26.6692 36.17 26.1292 36.58 26.1292 37.2ZM27.8792 38.84V39.79C28.6892 39.75 29.5192 39.69 30.2892 39.57L30.3392 40.18C28.4192 40.52 26.3092 40.54 24.7392 40.54L24.6292 39.85C25.3492 39.85 26.1892 39.85 27.0592 39.82V38.84C26.0292 38.71 25.3492 38.09 25.3492 37.2C25.3492 36.19 26.2192 35.54 27.4692 35.54C28.7192 35.54 29.5892 36.19 29.5892 37.2C29.5892 38.09 28.9092 38.71 27.8792 38.84ZM33.0392 37.08V37.77H31.6392V42.24H30.8192V33.27H31.6392V37.08H33.0392Z" fill="#3C3C3C"/>
<g clip-path="url(#clip0_6_2014)">
<path d="M20.15 13.925C20.4333 13.925 20.6708 13.8292 20.8625 13.6375C21.0542 13.4458 21.15 13.2083 21.15 12.925C21.15 12.6417 21.0542 12.4042 20.8625 12.2125C20.6708 12.0208 20.4333 11.925 20.15 11.925C19.8667 11.925 19.6292 12.0208 19.4375 12.2125C19.2458 12.4042 19.15 12.6417 19.15 12.925C19.15 13.2083 19.2458 13.4458 19.4375 13.6375C19.6292 13.8292 19.8667 13.925 20.15 13.925ZM24.575 13.925C24.8583 13.925 25.0958 13.8292 25.2875 13.6375C25.4792 13.4458 25.575 13.2083 25.575 12.925C25.575 12.6417 25.4792 12.4042 25.2875 12.2125C25.0958 12.0208 24.8583 11.925 24.575 11.925C24.2917 11.925 24.0542 12.0208 23.8625 12.2125C23.6708 12.4042 23.575 12.6417 23.575 12.925C23.575 13.2083 23.6708 13.4458 23.8625 13.6375C24.0542 13.8292 24.2917 13.925 24.575 13.925ZM28.825 13.925C29.1083 13.925 29.3458 13.8292 29.5375 13.6375C29.7292 13.4458 29.825 13.2083 29.825 12.925C29.825 12.6417 29.7292 12.4042 29.5375 12.2125C29.3458 12.0208 29.1083 11.925 28.825 11.925C28.5417 11.925 28.3042 12.0208 28.1125 12.2125C27.9208 12.4042 27.825 12.6417 27.825 12.925C27.825 13.2083 27.9208 13.4458 28.1125 13.6375C28.3042 13.8292 28.5417 13.925 28.825 13.925ZM14.5 25V6.5C14.5 6.1 14.65 5.75 14.95 5.45C15.25 5.15 15.6 5 16 5H33C33.4 5 33.75 5.15 34.05 5.45C34.35 5.75 34.5 6.1 34.5 6.5V19.5C34.5 19.9 34.35 20.25 34.05 20.55C33.75 20.85 33.4 21 33 21H18.5L14.5 25ZM17.85 19.5H33V6.5H16V21.5L17.85 19.5Z" fill="#3C3C3C"/>
</g>
<defs>
<clipPath id="clip0_6_2014">
<rect width="30" height="30" fill="white" transform="translate(9.5)"/>
</clipPath>
</defs>
</svg>
