<svg width="47" height="43" viewBox="0 0 47 43" fill="none" xmlns="http://www.w3.org/2000/svg">
<path d="M17.58 41.5246C19.03 41.5246 19.83 41.2446 19.83 40.7046C19.83 40.1746 19.03 39.8846 17.58 39.8846C16.14 39.8846 15.33 40.1746 15.33 40.7046C15.33 41.2446 16.14 41.5246 17.58 41.5246ZM17.58 39.2746C19.53 39.2746 20.65 39.7746 20.65 40.7046C20.65 41.6446 19.53 42.1446 17.58 42.1446C15.63 42.1446 14.51 41.6446 14.51 40.7046C14.51 39.7746 15.63 39.2746 17.58 39.2746ZM17.99 37.9346H21.64V38.5946H13.52V37.9346H17.17V37.0546H14.59V33.4446H20.64V34.0846H15.41V34.9146H20.4V35.5346H15.41V36.4146H20.69V37.0546H17.99V37.9346ZM28.1392 34.2746V34.9246H22.7792V34.2746H25.0592V33.1946H25.8792V34.2746H28.1392ZM24.1292 37.1146C24.1292 37.7346 24.6692 38.1346 25.4692 38.1346C26.2692 38.1346 26.8092 37.7346 26.8092 37.1146C26.8092 36.4946 26.2692 36.0846 25.4692 36.0846C24.6692 36.0846 24.1292 36.4946 24.1292 37.1146ZM25.8792 38.7546V39.7046C26.6892 39.6646 27.5192 39.6046 28.2892 39.4846L28.3392 40.0946C26.4192 40.4346 24.3092 40.4546 22.7392 40.4546L22.6292 39.7646C23.3492 39.7646 24.1892 39.7646 25.0592 39.7346V38.7546C24.0292 38.6246 23.3492 38.0046 23.3492 37.1146C23.3492 36.1046 24.2192 35.4546 25.4692 35.4546C26.7192 35.4546 27.5892 36.1046 27.5892 37.1146C27.5892 38.0046 26.9092 38.6246 25.8792 38.7546ZM31.0392 36.9946V37.6846H29.6392V42.1546H28.8192V33.1846H29.6392V36.9946H31.0392Z" fill="#3C3C3C"/>
<g clip-path="url(#clip0_6_2018)">
<path d="M30.875 24.2075C28.9417 24.2075 26.9708 23.7409 24.9625 22.8075C22.9542 21.8742 21.0917 20.5492 19.375 18.8325C17.6583 17.1159 16.3333 15.2534 15.4 13.245C14.4667 11.2367 14 9.26585 14 7.33252C14 7.01109 14.1071 6.74323 14.3214 6.52894C14.5357 6.31466 14.8036 6.20752 15.125 6.20752H18.625C18.8583 6.20752 19.0583 6.29085 19.225 6.45752C19.3917 6.62419 19.5083 6.83252 19.575 7.08252L20.2482 10.2235C20.2827 10.4629 20.2792 10.6784 20.2375 10.87C20.1958 11.0617 20.1064 11.2261 19.9693 11.3632L17.475 13.8825C17.9083 14.6159 18.3667 15.2992 18.85 15.9325C19.3333 16.5659 19.8667 17.1659 20.45 17.7325C21.0667 18.3659 21.7167 18.945 22.4 19.47C23.0833 19.995 23.8 20.4575 24.55 20.8575L26.925 18.4075C27.0917 18.2242 27.2846 18.0992 27.5038 18.0325C27.723 17.9659 27.9384 17.9492 28.15 17.9825L31.125 18.6325C31.375 18.6992 31.5833 18.8329 31.75 19.0336C31.9167 19.2344 32 19.459 32 19.7075V23.0825C32 23.404 31.8929 23.6718 31.6786 23.8861C31.4643 24.1004 31.1964 24.2075 30.875 24.2075ZM16.725 12.5075L18.75 10.4575L18.175 7.70752H15.5C15.5333 8.40752 15.6458 9.14502 15.8375 9.92002C16.0292 10.695 16.325 11.5575 16.725 12.5075ZM25.95 21.5825C26.6333 21.8992 27.375 22.1575 28.175 22.3575C28.975 22.5575 29.75 22.6742 30.5 22.7075V20.0325L27.925 19.5075L25.95 21.5825Z" fill="#3C3C3C"/>
</g>
<defs>
<clipPath id="clip0_6_2018">
<rect width="30" height="30" fill="white" transform="translate(8 0.20752)"/>
</clipPath>
</defs>
</svg>
